<svg id="Cloud" viewBox="0 0 512 512" xmlns="http://www.w3.org/2000/svg" data-name="Cloud"><path d="m256.079.107c141.384 0 256.006 114.587 256.006 255.964s-114.622 256.034-256.006 256.034-255.999-114.658-255.999-256.034 114.62-255.964 255.999-255.964zm118.153 238.619a78.446 78.446 0 0 0 .447-8.367 77.217 77.217 0 0 0 -142.179-41.748 62.384 62.384 0 0 0 -12.744-1.319 61.694 61.694 0 0 0 -60.236 48.787q-1.7-.093-3.395-.092a61.545 61.545 0 1 0 0 123.089h199.914a61.55 61.55 0 0 0 18.193-120.35zm-76.761-65.4a15.141 15.141 0 1 0 0 30.282 26.78 26.78 0 0 1 26.738 26.753 15.141 15.141 0 1 0 30.282 0 57.091 57.091 0 0 0 -57.02-57.035zm41.894 62.083a5.049 5.049 0 0 0 5.032-5.048 46.986 46.986 0 0 0 -46.926-46.941 5.047 5.047 0 1 0 0 10.094 36.882 36.882 0 0 1 36.829 36.845 5.055 5.055 0 0 0 5.065 5.048z" fill="#fff" fill-rule="evenodd"></path></svg>